<?xml version="1.0" encoding="UTF-8" standalone="no"?>
<!DOCTYPE svg PUBLIC "-//W3C//DTD SVG 20010904//EN" "http://www.w3.org/TR/2001/REC-SVG-20010904/DTD/svg10.dtd">
<svg version="1.0" xmlns="http://www.w3.org/2000/svg" width="194.000000pt" height="177.000000pt" viewBox="0 0 194.000000 177.000000" preserveAspectRatio="xMidYMid meet">
<metadata>
Created by potrace 1.16, written by Peter Selinger 2001-2019
</metadata>
<g transform="translate(0.000000,177.000000) scale(0.100000,-0.100000)" fill="#000000" stroke="none">
<path d="M574 1751 c-76 -46 -99 -114 -64 -187 29 -60 69 -84 139 -84 49 0 57 3 92 39 39 39 44 56 39 136 -5 91 -124 146 -206 96z"/>
<path d="M301 1545 c-36 -31 -57 -110 -47 -177 9 -61 57 -157 97 -195 19 -18 68 -48 110 -67 50 -22 84 -45 99 -66 l22 -31 -61 7 c-36 4 -61 3 -61 -3 0 -13 60 -40 106 -49 50 -9 66 -17 144 -77 115 -89 242 -137 361 -137 82 0 119 23 119 74 0 57 -51 85 -201 111 -52 9 -112 21 -133 26 l-39 11 30 18 c76 46 135 160 136 267 1 71 -18 103 -61 103 -40 0 -61 -28 -88 -119 -37 -126 -43 -137 -85 -176 -46 -41 -51 -42 -90 -14 -37 26 -29 39 26 39 95 0 100 23 8 40 -85 16 -163 44 -198 72 -40 31 -53 72 -66 204 -11 101 -16 122 -35 141 -30 30 -55 29 -93 -2z"/>
<path d="M1724 1221 c-59 -36 -76 -69 -72 -138 5 -72 21 -96 87 -125 53 -24 97 -18 142 19 83 70 75 188 -17 240 -48 28 -99 29 -140 4z"/>
<path d="M281 924 c-26 -34 -36 -66 -61 -208 -31 -176 -66 -259 -151 -352 -45 -50 -69 -84 -69 -100 0 -13 5 -24 12 -24 6 0 43 24 82 53 193 146 303 318 314 493 7 126 -10 164 -73 164 -24 0 -39 -7 -54 -26z"/>
<path d="M473 929 c-31 -11 -46 -45 -39 -85 9 -43 87 -129 186 -203 62 -47 76 -62 78 -88 5 -45 -23 -142 -74 -257 -24 -55 -44 -105 -44 -110 0 -35 159 163 207 258 61 119 47 197 -59 322 -99 119 -201 183 -255 163z"/>
<path d="M1572 805 c-16 -20 -18 -32 -11 -69 21 -113 113 -225 248 -306 46 -28 90 -50 98 -50 28 0 10 30 -52 85 -77 67 -105 111 -144 229 -43 129 -93 169 -139 111z"/>
<path d="M1125 705 c-29 -28 -30 -43 -10 -91 17 -41 109 -140 167 -180 22 -16 44 -39 49 -52 13 -34 -15 -158 -62 -276 -21 -54 -39 -100 -39 -103 0 -28 123 140 172 235 71 137 47 236 -94 387 -61 66 -117 105 -147 105 -7 0 -23 -11 -36 -25z"/>
</g>
</svg>